M48
METRIC,LZ,000.000
;FILE_FORMAT=3:3
;TYPE=PLATED
;Layer: Drill PTH
;EasyEDA v6.4.19.4, 2021-06-27T21:00:09+02:00
;fb06414095cb4972a754c1e5e836c03f,10
;Gerber Generator version 0.2
;Holesize 1 = 0.800 mm
T01C0.800
;Holesize 2 = 0.901 mm
T02C0.901
;Holesize 3 = 1.000 mm
T03C1.000
%
G05
G90
T01
X069342Y023860
X069342Y020574
T02
X069342Y006604
X069342Y009144
X069342Y011684
X069342Y014224
X080645Y012145
X080645Y017144
X080645Y022145
X005374Y041529
X010374Y041529
X022900Y041783
X027900Y041783
X040172Y041656
X045172Y041656
X078526Y041656
X083526Y041656
X057190Y041783
X062190Y041783
X069469Y037338
X069469Y029718
X034036Y037719
X034036Y045339
X017145Y037465
X017145Y045085
X050673Y037846
X050673Y045466
X059515Y031780
X056975Y031780
X054435Y031780
X051895Y031780
X049355Y031780
X046815Y031780
X044275Y031780
X041735Y031780
X039195Y031780
X036655Y031780
X034115Y031780
X031575Y031780
X029035Y031780
X026495Y031780
X023955Y031780
X021415Y031780
X018875Y031780
X016335Y031780
X013795Y031780
T03
X059515Y006336
X056975Y006336
X054435Y006336
X051895Y006336
X049355Y006336
X046815Y006336
X044275Y006336
X041735Y006336
X039195Y006336
X036655Y006336
X034115Y006336
X031575Y006336
X029035Y006336
X026495Y006336
X023955Y006336
X021415Y006336
X018875Y006336
X016335Y006336
X013795Y006336
M30
